<?xml version="1.0" standalone="no"?><!DOCTYPE svg PUBLIC "-//W3C//DTD SVG 1.1//EN" "http://www.w3.org/Graphics/SVG/1.1/DTD/svg11.dtd"><svg t="1643005780758" class="icon" viewBox="0 0 1024 1024" version="1.1" xmlns="http://www.w3.org/2000/svg" p-id="2109" xmlns:xlink="http://www.w3.org/1999/xlink" width="200" height="200"><defs><style type="text/css"></style></defs><path d="M414.42072939 448.06875312c154.78091137-90.84966619 277.596201-215.34735606 393.68188457-349.93945254 18.50641295-21.87121515 30.28322149-47.1072342 58.88404273-63.93124522 18.50641295 16.82401267 11.77680854 40.37762979 11.77680855 60.56644301v757.08054757c1.68240194 109.35607914 5.04720414 114.40328326 104.30887499 149.73370725-48.78963445 20.18881488-311.2442247 25.23601904-410.50589723 6.72960608 105.99127692-57.20164081 105.99127692-57.20164081 105.99127691-195.15854119V532.18881488c-92.53206643-11.77680854-176.6521282-8.41200635-269.18419463-1.68240193 0 129.54489403-1.68240194 254.0425839 1.68240192 380.22267573 1.68240194 42.06003006 16.82401267 50.47203638 94.21446839 92.53206645-58.88404273 16.82401267-321.338633 21.87121515-434.05951432 6.7296044 1.68240194-5.04720414 3.36480221-11.77680854 6.7296044-13.45920883 94.21446839-33.64802371 97.57927061-38.69522785 99.26167253-136.27449841 1.68240194-72.34325156 0-146.36890503 0-218.71215826 0-30.28322149-1.68240194-62.24884495 31.96562344-80.75525958 79.07285764-18.50641295 143.00410283-63.93124688 205.25294775-112.72088133z" fill="#343434" p-id="2110"></path><path d="M209.16778164 542.28322149c-38.69522785-3.36480221-31.96562345-31.96562345-31.96562344-55.51924053 0-97.57927061-5.04720414-195.15854116 1.68240026-292.73781007 5.04720414-80.75525788-16.82401267-137.95690036-102.62647306-156.46331332-3.36480221 0-5.04720414-8.41200635-6.72960606-13.45921049 57.20164081-20.18881488 353.30425476-23.55361709 434.05951431-3.36480221 5.04720414 15.14161076-5.04720414 21.87121515-15.14161074 25.23601737-63.93124688 16.82401267-80.75525788 60.566443-77.39045571 119.45048741 1.68240194 62.24884495 1.68240194 122.81528962 0 185.06413288 0 26.91841929 6.72960441 57.20164081-13.45921046 80.75525959-60.566443 42.06003006-136.27449842 57.20164081-188.4289351 111.03847937z" fill="#A6A6A6" p-id="2111"></path><path d="M209.16778164 542.28322149c52.15443833-53.83683859 127.86249209-68.97844935 186.74653483-112.72088131 6.72960441 6.72960441 13.45921049 11.77680854 20.1888149 18.50641294-62.24884495 48.78963445-126.18009183 94.21446839-205.25294945 112.72088133-1.68240194-6.72960441-1.68240194-11.77680854-1.68240028-18.50641296z" fill="#E6E6E6" p-id="2112"></path></svg>